<svg width="24" height="24" viewBox="0 0 24 24" fill="none" xmlns="http://www.w3.org/2000/svg">
<path d="M21.816 4.983C21.7533 4.79042 21.6314 4.62258 21.4676 4.5035C21.3038 4.38442 21.1065 4.32019 20.904 4.32H18.72V0.96C18.72 0.429 18.291 0 17.76 0H6.24C5.709 0 5.28 0.429 5.28 0.96V4.32H3.096C2.89337 4.31973 2.69589 4.38378 2.53199 4.50293C2.3681 4.62208 2.24625 4.79017 2.184 4.983L0 11.7V23.04C0 23.571 0.429 24 0.96 24H23.04C23.571 24 24 23.571 24 23.04V11.7L21.816 4.983ZM16.44 15.48C16.44 15.612 16.332 15.72 16.2 15.72H12.96V18.96C12.96 19.092 12.852 19.2 12.72 19.2H11.28C11.148 19.2 11.04 19.092 11.04 18.96V15.72H7.8C7.668 15.72 7.56 15.612 7.56 15.48V14.04C7.56 13.908 7.668 13.8 7.8 13.8H11.04V10.56C11.04 10.428 11.148 10.32 11.28 10.32H12.72C12.852 10.32 12.96 10.428 12.96 10.56V13.8H16.2C16.332 13.8 16.44 13.908 16.44 14.04V15.48ZM16.56 4.32H7.44V2.16H16.56V4.32Z" fill="white"/>
</svg>
